PathFileType	4	(X/Y/Z)	Squat.trc	
DataRate	CameraRate	NumFrames	NumMarkers	Units	OrigDataRate	OrigDataStartFrame	OrigNumFrames	
100.00	100.00	50	6	mm	100.00	1543	1542	
Frame#	Time	RAsis			SACR			LThighInferior			LThighLateral			LAsis			LThighSuperior			
		X1	Y1	Z1	X2	Y2	Z2	X3	Y3	Z3	X4	Y4	Z4	X5	Y5	Z5	X6	Y6	Z6	

772	7.710	544.68719	1201.93262	481.83820	423.51709	1049.64453	537.75330	196.16347	1361.35767	390.61588	234.95016	1301.31018	492.01401	298.50867	1212.37585	488.80994	200.83806	1216.08789	417.48807 
773	7.720	544.45831	1201.59302	483.64111	423.29953	1049.49524	539.93719	196.42075	1361.29431	391.58264	234.90686	1301.53857	493.17896	298.36078	1212.17603	490.66992	200.88417	1216.04712	418.93622 
774	7.730	544.30695	1201.23193	485.64957	423.13211	1049.33923	542.38391	196.67917	1361.13416	392.52689	234.87917	1301.77747	494.48611	298.15823	1212.03174	492.74170	201.05212	1215.83069	420.48291 
775	7.740	544.23340	1200.82141	487.76364	422.96909	1049.20532	545.10925	197.10959	1360.72742	393.45364	234.88539	1301.98669	495.93149	297.96210	1211.84277	494.97455	201.20410	1215.65271	422.29892 
776	7.750	543.72095	1200.36487	490.08972	422.92676	1049.14868	548.15320	197.50328	1360.37732	394.60385	234.85004	1302.22461	497.49911	297.79236	1211.59753	497.38602	201.31538	1215.47815	424.30960 
777	7.760	544.28796	1200.42419	492.90265	422.89636	1049.09595	551.32343	197.79869	1360.05054	395.79898	234.85263	1302.46497	499.19504	297.61490	1211.34717	500.02225	201.36400	1215.28687	426.48041 
778	7.770	544.04095	1200.08386	495.72546	422.83636	1048.94653	554.66608	198.10977	1359.63269	397.06049	234.91844	1302.71448	501.02478	297.42935	1211.11792	502.83789	201.23973	1215.33020	428.96265 
779	7.780	544.07098	1199.93970	498.71112	422.89551	1048.77954	558.44080	198.36835	1359.22290	398.54578	234.88074	1303.05981	502.98511	297.24130	1210.90869	505.83270	201.09903	1215.32166	431.54172 
780	7.790	544.15137	1199.70972	501.81927	422.89301	1048.77295	562.47754	198.58644	1358.79297	400.18356	234.85085	1303.35913	505.04663	297.05206	1210.69128	509.05600	201.17035	1214.88538	434.08206 
781	7.800	544.03668	1199.09253	504.91406	422.61136	1048.69141	566.52917	198.81294	1358.30859	401.89960	234.85976	1303.57617	507.22864	296.87381	1210.37158	512.45508	201.31128	1214.35571	436.81128 
782	7.810	543.98529	1198.70532	508.45831	422.27951	1048.37231	570.71838	199.09769	1357.73242	403.64993	234.80931	1303.82556	509.51334	296.72739	1209.87451	515.89880	201.33484	1214.05151	439.81549 
783	7.820	543.77881	1198.07776	512.03381	422.11905	1048.22693	575.29401	199.39841	1357.13220	405.52805	234.75862	1304.08411	511.84018	296.55511	1209.35071	519.43481	201.31906	1213.89661	442.98334 
784	7.830	543.61560	1197.44312	515.68713	421.92923	1048.05884	580.04126	199.63712	1356.56909	407.46002	234.67383	1304.37756	514.23981	296.34167	1208.95459	523.18457	201.26501	1213.76074	446.17325 
785	7.840	543.64508	1196.96301	519.53589	421.71603	1047.80896	584.78375	200.13705	1356.37048	409.15067	234.55331	1304.75525	516.76453	296.18411	1208.56274	527.09119	201.20508	1213.55261	449.35782 
786	7.850	543.72339	1196.52026	523.50385	421.62506	1047.76343	589.74384	200.84261	1356.64392	410.84631	234.49649	1305.09509	519.31537	296.00845	1208.17078	531.12836	201.35088	1213.19421	452.61600 
787	7.860	544.17395	1196.92969	527.02423	421.36688	1047.69202	594.95886	201.22031	1356.55945	413.03186	234.46584	1305.38318	521.87524	295.77087	1207.86426	535.32532	201.51083	1212.87280	456.01447 
788	7.870	544.31445	1196.79163	531.32477	420.98184	1047.62756	600.28284	201.29907	1355.92932	415.54190	234.38548	1305.72717	524.52808	295.53201	1207.65430	539.69885	201.45502	1212.73022	459.56174 
789	7.880	544.19995	1196.30859	536.12256	420.78445	1047.63098	605.69775	201.25246	1355.27026	418.11380	234.29111	1306.08594	527.25244	295.29883	1207.48096	544.22198	201.41998	1212.52051	463.15024 
790	7.890	544.00378	1195.74280	541.07141	420.70230	1047.62805	611.34137	201.22432	1354.70447	420.82681	234.20822	1306.46582	530.08392	295.11136	1207.23242	548.86859	201.53690	1212.19995	466.79916 
791	7.900	543.83624	1195.15698	546.13586	420.56909	1047.71484	617.08472	201.49780	1353.59741	423.16345	234.10155	1306.94580	533.03204	294.95538	1206.97400	553.65631	201.71434	1211.88135	470.58319 
792	7.910	543.63843	1194.58813	551.33209	420.48456	1047.79333	622.86176	202.08760	1351.73950	424.84628	234.00635	1307.46985	536.02271	294.83734	1206.72803	558.54431	201.84175	1211.67932	474.50714 
793	7.920	543.38885	1194.09863	556.68195	420.39423	1047.85315	628.71130	202.62930	1350.35425	426.78125	234.02242	1307.99902	538.89935	294.72220	1206.54797	563.57318	201.91144	1211.59875	478.50815 
794	7.930	543.25763	1193.84131	562.22375	420.10501	1048.01538	634.64539	202.97118	1349.66101	429.22659	234.08075	1308.52661	541.76691	294.56870	1206.49036	568.77911	202.02971	1211.48853	482.54498 
795	7.940	543.20868	1193.66150	567.86694	419.87793	1048.09241	640.76221	203.35402	1348.94763	431.77625	234.00070	1309.08337	544.97577	294.44797	1206.44385	574.08868	202.17581	1211.44653	486.71631 
796	7.950	543.12354	1193.44849	573.51611	419.73969	1048.07935	646.88953	203.79474	1348.16956	434.30563	233.84354	1309.69641	548.28082	294.33887	1206.42285	579.47992	202.28636	1211.53357	491.00970 
797	7.960	543.09180	1193.33350	579.31482	419.47141	1048.14014	653.02240	204.18901	1347.44910	436.86838	233.72290	1310.35059	551.41968	294.20798	1206.48108	584.94684	202.41595	1211.55530	495.30966 
798	7.970	543.11737	1193.14185	585.21228	419.17386	1048.26770	659.24432	204.58499	1346.74341	439.49670	233.59517	1311.06189	554.56293	294.10617	1206.58362	590.49994	202.60730	1211.48047	499.54178 
799	7.980	543.19397	1193.33594	591.31091	418.99170	1048.46570	665.62433	205.04175	1345.92249	442.05887	233.44366	1311.78149	557.77869	294.04303	1206.75049	596.19061	202.78525	1211.50220	503.80746 
800	7.990	543.25659	1193.44409	597.45837	418.80835	1048.76135	672.21240	205.58792	1345.05066	444.67175	233.30583	1312.48547	561.03485	293.96356	1207.01746	601.96118	202.93581	1211.63428	508.17984 
801	8.000	543.29504	1193.51807	603.58685	418.57065	1049.07727	678.81360	206.12451	1344.28455	447.40079	233.21043	1313.19360	564.27985	293.86069	1207.33557	607.76764	203.12973	1211.72083	512.57404 
802	8.010	543.33197	1193.73511	609.82111	418.43454	1049.40491	685.40997	206.52815	1343.66821	450.17953	233.17538	1313.96008	567.55615	293.79636	1207.66345	613.67572	203.37422	1211.77112	517.02643 
803	8.020	543.24579	1193.70422	616.05914	418.25565	1049.84729	692.01422	206.97473	1343.03162	453.06290	233.22273	1314.77222	570.91595	293.80118	1207.97656	619.68372	203.59521	1211.94360	521.61700 
804	8.030	543.31299	1194.39380	622.56470	418.06290	1050.29138	698.66058	207.51288	1342.34436	456.05875	233.29573	1315.56299	574.31866	293.79221	1208.35913	625.78296	203.78383	1212.20825	526.32587 
805	8.040	543.14685	1194.50793	628.87091	417.95624	1050.67346	705.41223	207.99651	1341.74524	459.19052	233.40675	1316.35010	577.73682	293.74213	1208.82971	631.94202	203.97739	1212.45862	531.09857 
806	8.050	543.34399	1195.24133	635.55341	417.73737	1051.13098	712.18616	208.54515	1341.04541	462.31125	233.61986	1317.15588	581.15875	293.76703	1209.22180	638.09595	204.16417	1212.68994	535.84784 
807	8.060	543.33698	1195.78333	642.03992	417.51645	1051.70386	718.90533	209.18279	1340.14404	465.26712	233.85637	1317.96387	584.55206	293.85321	1209.59802	644.26593	204.38036	1212.86536	540.55981 
808	8.070	543.34912	1196.37805	648.49731	417.40985	1052.26709	725.58691	209.89034	1339.09863	468.22183	234.05040	1318.75818	587.97437	293.90640	1210.07825	650.46942	204.60626	1213.01282	545.33392 
809	8.080	543.38593	1196.99243	654.94275	417.35764	1052.76892	732.31769	210.60071	1337.99158	471.26428	234.19836	1319.50928	591.44757	293.88040	1210.68738	656.78180	204.76917	1213.22620	550.18610 
810	8.090	543.24066	1197.44348	661.27844	417.31763	1053.28796	739.07019	211.06122	1337.09363	474.37183	234.31203	1320.18713	594.87970	293.83133	1211.36450	663.14978	204.96463	1213.38672	554.97717 
811	8.100	543.10339	1197.90430	667.53583	417.18103	1053.94263	745.79596	211.55087	1336.19531	477.45053	234.40703	1320.85217	598.27167	294.03577	1212.08411	668.82153	205.19344	1213.48474	559.69629 
812	8.110	543.12164	1198.53455	673.85016	416.89557	1054.75610	752.43402	212.23065	1335.07483	480.41760	234.48941	1321.52600	601.61157	293.87796	1212.65259	675.62073	205.35458	1213.65234	564.41498 
813	8.120	543.20697	1199.32593	680.18701	416.72101	1055.54114	758.98138	212.72948	1334.00586	483.34692	234.53456	1322.18652	604.85931	294.34830	1212.93555	681.13318	205.51263	1213.79395	569.07666 
814	8.130	543.20026	1200.09802	686.40839	416.81326	1056.23169	765.52142	213.01315	1333.06958	486.29587	234.56042	1322.83911	608.06769	294.40964	1213.50891	687.14380	205.70178	1213.90161	573.68414 
815	8.140	543.18933	1200.95142	692.65216	416.86444	1056.89221	772.01489	213.31599	1332.12939	489.33481	234.60985	1323.45166	611.25873	294.25809	1214.26978	693.40833	205.91631	1214.01111	578.26251 
816	8.150	543.23059	1201.91113	698.95441	416.82773	1057.63171	778.42554	213.68523	1331.20227	492.52069	234.67140	1324.01038	614.38116	294.24652	1214.95435	699.54230	206.10524	1214.11560	582.78790 
817	8.160	543.19006	1202.74109	705.11072	416.74423	1058.52588	784.78638	214.00598	1330.37146	495.72229	234.74284	1324.56604	617.49231	294.35214	1215.54321	705.48676	206.25778	1214.25476	587.26013 
818	8.170	543.17462	1203.63977	711.18439	416.56424	1059.28809	791.01074	214.36638	1329.43323	498.76126	234.82907	1325.16174	620.63568	294.31076	1216.26660	711.33673	206.40697	1214.47083	591.74438 
819	8.180	543.17853	1204.64319	717.21814	416.35202	1059.85925	797.01709	214.79842	1328.36658	501.71884	234.97745	1325.76477	623.72821	294.18320	1217.16064	717.17218	206.54898	1214.73938	596.24701 
820	8.190	543.13446	1205.56885	723.07172	416.15567	1060.66394	802.97540	215.20201	1327.29077	504.64819	235.17494	1326.36462	626.74677	294.11801	1218.07764	722.89758	206.69972	1214.99646	600.68744 
821	8.200	543.08411	1206.56458	728.90198	416.21872	1061.72876	808.94922	215.57321	1326.21545	507.49976	235.34166	1326.94153	629.66187	294.11569	1218.90991	728.43738	206.86018	1215.25293	605.01941 
